<?xml version="1.0" standalone="no"?>
<!DOCTYPE svg PUBLIC "-//W3C//DTD SVG 20010904//EN"
 "http://www.w3.org/TR/2001/REC-SVG-20010904/DTD/svg10.dtd">
<svg version="1.0" xmlns="http://www.w3.org/2000/svg"
 width="252.000000pt" height="200.000000pt" viewBox="0 0 252.000000 200.000000"
 preserveAspectRatio="xMidYMid meet">

<g transform="translate(0.000000,200.000000) scale(0.100000,-0.100000)"
fill="#000000" stroke="none">
<path d="M0 1000 l0 -1000 1260 0 1260 0 0 1000 0 1000 -1260 0 -1260 0 0
-1000z m1493 911 c132 -36 195 -106 205 -226 6 -80 -10 -141 -50 -189 -36 -44
-77 -66 -180 -96 -43 -13 -78 -27 -78 -32 0 -4 12 -27 26 -49 14 -23 28 -56
31 -74 4 -26 0 -36 -22 -53 -38 -30 -61 -28 -97 8 -28 28 -30 35 -26 83 3 29
8 59 12 68 5 12 -1 20 -23 28 -34 15 -67 48 -57 58 4 4 20 2 36 -5 17 -7 43
-17 58 -23 24 -10 41 -7 121 21 118 43 149 63 180 123 60 117 8 262 -112 312
-44 18 -64 14 -128 -26 -80 -51 -112 -32 -69 39 34 55 70 62 173 33z m17 -81
c27 -27 25 -42 -7 -80 -25 -30 -27 -39 -31 -160 -4 -103 -8 -130 -20 -135 -23
-9 -27 2 -27 81 0 41 -2 74 -5 74 -3 -1 -21 -24 -40 -52 -42 -61 -112 -105
-152 -95 -14 4 -50 27 -79 51 l-54 45 -7 -72 c-14 -137 -28 -157 -113 -157
-30 0 -55 -3 -55 -7 0 -3 25 -32 55 -64 58 -61 65 -76 39 -86 -10 -4 -31 13
-66 51 -68 77 -124 109 -175 100 -30 -4 -44 -2 -56 11 -20 19 -22 56 -5 73 18
18 63 14 82 -7 19 -21 94 -41 150 -41 90 0 127 105 103 283 -7 45 -15 63 -39
86 -25 23 -29 34 -24 55 12 49 73 58 97 14 8 -14 8 -27 -1 -48 -10 -24 -7 -36
24 -96 40 -78 49 -90 90 -122 66 -51 129 -12 199 126 33 64 42 92 37 107 -5
11 -9 26 -9 33 -1 16 35 52 54 52 8 0 24 -9 35 -20z m288 -362 c7 -7 12 -24
12 -40 0 -34 -30 -52 -71 -43 -27 6 -36 1 -82 -47 -29 -29 -72 -80 -95 -112
-33 -43 -47 -55 -55 -47 -14 14 10 62 66 133 l37 48 -47 1 c-27 0 -57 4 -68 8
l-20 8 20 6 c11 3 61 16 112 27 73 17 95 26 108 46 17 26 62 33 83 12z m-756
-445 c3 -57 3 -58 33 -58 27 0 30 3 33 38 5 53 32 51 32 -3 0 -39 1 -40 35
-40 l35 0 0 60 c0 47 3 60 15 60 12 0 15 -14 15 -63 0 -36 -5 -68 -12 -75 -13
-13 -173 -17 -202 -6 -22 9 -24 144 -1 144 10 0 15 -15 17 -57z m-172 26 c0
-5 -7 -9 -15 -9 -15 0 -20 12 -9 23 8 8 24 -1 24 -14z m50 0 c0 -5 -7 -9 -15
-9 -8 0 -15 7 -15 15 0 9 6 12 15 9 8 -4 15 -10 15 -15z m-110 -44 c0 -40 18
-48 91 -43 43 3 44 4 47 41 2 24 8 37 18 37 18 0 20 -80 2 -98 -16 -16 -126
-15 -158 1 -20 10 -26 21 -28 55 -2 33 0 42 12 42 12 0 16 -10 16 -35z m534
24 c14 -7 30 -25 35 -41 9 -25 15 -29 43 -26 30 3 33 6 36 41 5 54 32 51 32
-4 0 -39 1 -40 33 -37 28 3 32 7 35 36 3 32 32 48 32 17 0 -12 6 -11 33 5 17
11 40 20 50 20 29 0 57 -37 57 -75 l0 -35 -230 0 c-198 0 -230 2 -230 15 0 11
11 15 40 15 26 0 40 5 40 13 0 19 -21 37 -42 37 -10 0 -18 7 -18 15 0 18 20
19 54 4z m-254 -124 c0 -8 -4 -15 -10 -15 -5 0 -10 7 -10 15 0 8 5 15 10 15 6
0 10 -7 10 -15z m50 0 c0 -8 -7 -15 -15 -15 -8 0 -15 7 -15 15 0 8 7 15 15 15
8 0 15 -7 15 -15z m300 0 c0 -8 -7 -15 -15 -15 -8 0 -15 7 -15 15 0 8 7 15 15
15 8 0 15 -7 15 -15z m42 0 c0 -5 -5 -11 -11 -13 -6 -2 -11 4 -11 13 0 9 5 15
11 13 6 -2 11 -8 11 -13z m-44 -161 c109 -45 152 -146 152 -358 0 -182 -39
-279 -134 -329 -34 -18 -58 -22 -136 -22 -86 0 -99 3 -143 28 -93 55 -127 147
-127 342 0 213 47 309 168 345 48 15 180 11 220 -6z m-1100 -356 l-3 -273 -70
0 -70 0 -3 173 c-1 94 -5 172 -8 172 -3 0 -18 -8 -32 -18 -15 -10 -44 -25 -64
-35 l-38 -17 0 63 0 63 55 27 c38 18 66 41 87 72 32 45 32 45 90 45 l58 0 -2
-272z m424 262 c94 -27 141 -113 142 -260 1 -118 -20 -186 -71 -230 -19 -17
-46 -36 -60 -41 -42 -16 -154 -11 -193 9 -34 17 -80 73 -80 97 0 17 133 32
138 16 7 -22 34 -41 57 -41 31 0 51 32 61 94 l7 50 -28 -22 c-62 -49 -161 -33
-212 35 -39 51 -45 154 -12 212 35 63 83 89 169 90 25 1 62 -4 82 -9z m1228
-265 l0 -275 -70 0 -70 0 0 180 0 179 -47 -29 c-27 -16 -60 -32 -75 -36 l-28
-6 0 60 0 60 40 16 c45 18 116 78 125 107 5 16 16 19 66 19 l59 0 0 -275z
m478 3 l-3 -273 -70 0 -70 0 -5 180 c-3 99 -9 174 -13 167 -10 -16 -101 -62
-122 -62 -12 0 -15 12 -15 54 l0 55 61 32 c40 22 70 47 90 76 30 43 31 43 90
43 l59 0 -2 -272z"/>
<path d="M1341 1311 c-15 -28 -14 -53 5 -79 17 -25 52 -29 60 -7 8 19 -12 68
-36 90 -17 16 -19 15 -29 -4z"/>
<path d="M1620 985 l-23 -25 52 0 c49 0 52 2 49 23 -5 33 -47 35 -78 2z"/>
<path d="M1290 627 c-47 -23 -55 -58 -55 -227 0 -130 3 -160 18 -188 36 -66
99 -66 133 0 23 43 31 239 15 321 -18 86 -59 120 -111 94z"/>
<path d="M650 552 c-33 -27 -39 -99 -10 -134 46 -59 115 -23 115 59 0 37 -5
49 -28 69 -34 29 -48 30 -77 6z"/>
</g>
</svg>
